<svg width="197" height="48" viewBox="0 0 197 48" fill="none" xmlns="http://www.w3.org/2000/svg">
<path d="M116.75 19.4006C120.15 19.3006 122.95 21.9006 123.25 25.2006H109.75C110.25 21.8006 113.25 19.2006 116.75 19.4006ZM122.85 31.2006C121.55 33.1006 119.35 34.2006 117.05 34.0006C113.25 34.0006 110.45 31.9006 109.75 28.3006H126.65C126.75 27.8006 126.75 27.3006 126.75 26.7006C126.75 21.0006 122.75 16.0006 116.65 16.0006C110.95 15.8006 106.25 20.3006 106.05 25.9006C106.05 26.1006 106.05 26.4006 106.05 26.6006C106.05 32.7006 110.35 37.2006 116.85 37.2006C120.45 37.3006 123.75 35.6006 125.75 32.6006L122.85 31.2006Z" fill="#006BFF"/>
<path d="M104.55 7.40039H101.05V36.9004H104.55V7.40039Z" fill="#006BFF"/>
<path d="M146.35 24.4002V36.8002H142.85V24.6002C142.85 21.3002 140.95 19.4002 137.85 19.4002C134.75 19.4002 131.95 21.3002 131.95 26.1002V36.8002H128.45V16.6002H131.95V19.5002C133.35 17.2002 135.85 15.9002 138.55 16.1002C143.25 16.1002 146.35 19.3002 146.35 24.4002Z" fill="#006BFF"/>
<path d="M165.75 26.7004C165.75 22.7004 162.45 19.6004 158.55 19.6004C154.55 19.6004 151.45 22.9004 151.45 26.8004C151.45 30.7004 154.65 33.9004 158.65 33.9004C162.55 34.0004 165.75 30.9004 165.85 27.0004C165.75 26.9004 165.75 26.8004 165.75 26.7004ZM169.25 7.40039V36.9004H165.75V33.4004C164.05 36.0004 161.15 37.5004 158.15 37.4004C152.25 37.2004 147.65 32.3004 147.85 26.4004C148.05 20.8004 152.55 16.3004 158.15 16.1004C161.25 16.0004 164.15 17.5004 165.75 20.1004V7.40039H169.25Z" fill="#006BFF"/>
<path d="M175.65 7.40039H172.15V36.9004H175.65V7.40039Z" fill="#006BFF"/>
<path d="M94.75 26.7004C94.75 22.7004 91.45 19.6004 87.55 19.6004C83.55 19.6004 80.45 22.9004 80.45 26.8004C80.45 30.7004 83.65 33.9004 87.55 33.9004C91.45 34.0004 94.65 30.9004 94.75 27.0004C94.75 26.9004 94.75 26.8004 94.75 26.7004ZM98.25 16.6004V36.8004H94.75V33.4004C93.05 36.0004 90.15 37.5004 87.15 37.4004C81.25 37.2004 76.65 32.3004 76.85 26.4004C77.05 20.8004 81.55 16.3004 87.15 16.1004C90.25 16.0004 93.15 17.5004 94.75 20.1004V16.6004H98.25Z" fill="#006BFF"/>
<path d="M71.7499 33.001C66.0499 35.101 59.7499 32.301 57.5499 26.601C55.4499 20.901 58.2499 14.601 63.9499 12.401C68.4499 10.701 73.5499 12.101 76.5499 16.001L79.5499 13.801C74.5499 7.40101 65.3499 6.20101 58.9499 11.101C52.5499 16.101 51.3499 25.301 56.2499 31.701C61.2499 38.101 70.4499 39.301 76.8499 34.401H76.9499L74.9499 31.201C73.9499 32.001 72.8499 32.601 71.7499 33.001Z" fill="#006BFF"/>
<path d="M192.55 16.5996V28.0996C192.55 31.7996 190.45 34.1996 187.15 34.1996C183.85 34.1996 181.45 31.8996 181.45 28.0996V16.5996H177.85V27.6996C177.85 33.4996 181.45 37.2996 187.05 37.2996C191.85 37.2996 192.65 34.1996 192.65 34.1996V38.3996C192.65 42.4996 190.85 44.7996 187.15 44.7996C184.45 44.7996 182.05 42.7996 181.75 40.0996L178.55 41.1996C179.45 45.1996 183.05 47.9996 187.15 47.9996C192.85 47.9996 196.05 44.1996 196.05 38.3996V16.5996H192.55Z" fill="#006BFF"/>
<path d="M29.5495 28.4004C27.9495 30.1004 25.7495 31.1004 23.4495 31.1004H21.5495C19.4495 31.1004 17.3495 30.3004 15.8495 28.8004C14.4495 27.3004 13.6495 25.4004 13.7495 23.4004V20.9004C13.7495 18.8004 14.5495 16.9004 15.9495 15.4004C17.4495 13.9004 19.4495 13.1004 21.5495 13.1004H23.3495C25.6495 13.1004 27.9495 14.1004 29.5495 15.8004C31.0495 17.4004 33.1495 18.2004 35.3495 18.1004C35.8495 18.1004 36.3495 18.1004 36.8495 18.0004C36.6495 17.5004 36.4495 17.0004 36.1495 16.6004L33.9495 12.9004C31.9495 9.50039 28.3495 7.40039 24.3495 7.40039H20.0495C16.0495 7.40039 12.4495 9.50039 10.4495 12.9004L8.24951 16.6004C6.24951 20.0004 6.24951 24.3004 8.24951 27.7004L10.4495 31.5004C12.4495 34.9004 16.0495 37.0004 20.0495 37.0004H24.3495C28.3495 37.0004 31.9495 34.9004 33.9495 31.5004L36.1495 27.8004C36.4495 27.4004 36.6495 26.9004 36.8495 26.4004C36.3495 26.3004 35.8495 26.3004 35.3495 26.3004C33.1495 26.0004 31.0495 26.8004 29.5495 28.4004Z" fill="#006BFF"/>
<path d="M23.3497 15.3998H21.4497C18.5497 15.2998 16.0497 17.4998 15.8497 20.4998C15.8497 20.5998 15.8497 20.7998 15.8497 20.8998V23.3998C15.7497 26.2998 18.1497 28.7998 21.0497 28.7998C21.1497 28.7998 21.2497 28.7998 21.4497 28.7998H23.2497C28.1497 28.7998 27.7497 23.7998 35.1497 23.7998C35.8497 23.7998 36.5497 23.8998 37.2497 23.9998C37.4497 22.6998 37.4497 21.3998 37.2497 20.1998C36.5497 20.2998 35.8497 20.3998 35.1497 20.3998C27.9497 20.3998 28.3497 15.3998 23.3497 15.3998Z" fill="#006BFF"/>
<path d="M41.6497 25.8004C40.3497 24.9004 38.9497 24.3004 37.3497 24.0004C37.2497 24.7004 37.0497 25.5004 36.7497 26.2004C38.0497 26.4004 39.2497 26.9004 40.2497 27.6004C37.1497 37.6004 26.5497 43.2004 16.4497 40.2004C6.34972 37.2004 0.849718 26.5004 3.94972 16.4004C7.04972 6.3004 17.6497 0.800403 27.7497 3.8004C33.7497 5.7004 38.4497 10.4004 40.3497 16.4004C39.3497 17.2004 38.1497 17.6004 36.8497 17.8004C37.1497 18.5004 37.3497 19.2004 37.4497 20.0004C38.9497 19.8004 40.4497 19.2004 41.7497 18.4004C42.6497 17.9004 42.9497 16.8004 42.5497 15.9004C39.0497 4.7004 27.1497 -1.5996 15.9497 1.8004C4.74972 5.3004 -1.55028 17.2004 1.84972 28.4004C5.24972 39.6004 17.2497 45.9004 28.4497 42.5004C35.1497 40.4004 40.4497 35.2004 42.5497 28.4004C42.8497 27.5004 42.5497 26.4004 41.6497 25.8004Z" fill="#006BFF"/>
<path d="M36.7499 17.9996C36.2499 18.0996 35.7499 18.0996 35.2499 18.0996C33.0499 18.1996 30.9499 17.3996 29.4499 15.7996C27.8499 14.0996 25.6499 13.1996 23.3499 13.0996H21.4499C19.3499 13.0996 17.3499 13.8996 15.8499 15.3996C14.4499 16.8996 13.6499 18.7996 13.6499 20.8996V23.3996C13.6499 25.3996 14.4499 27.3996 15.8499 28.8996C17.3499 30.3996 19.3499 31.1996 21.4499 31.0996H23.2499C25.5499 31.0996 27.8499 30.0996 29.4499 28.3996C30.9499 26.7996 33.0499 25.8996 35.2499 26.0996C35.7499 26.0996 36.2499 26.0996 36.7499 26.1996C37.0499 25.4996 37.2499 24.7996 37.3499 23.9996C36.6499 23.8996 35.9499 23.7996 35.2499 23.7996C27.8499 23.7996 28.2499 28.7996 23.3499 28.7996H21.4499C18.5499 28.8996 16.0499 26.5996 15.9499 23.6996C15.9499 23.5996 15.9499 23.4996 15.9499 23.3996V20.7996C15.8499 17.8996 18.2499 15.3996 21.1499 15.2996C21.2499 15.2996 21.3499 15.2996 21.4499 15.2996H23.2499C28.1499 15.2996 27.7499 20.2996 35.1499 20.2996C35.8499 20.2996 36.5499 20.1996 37.2499 20.0996C37.2499 19.4996 37.0499 18.7996 36.7499 17.9996Z" fill="#0AE8F0"/>
<path d="M36.7499 17.9996C36.2499 18.0996 35.7499 18.0996 35.2499 18.0996C33.0499 18.1996 30.9499 17.3996 29.4499 15.7996C27.8499 14.0996 25.6499 13.1996 23.3499 13.0996H21.4499C19.3499 13.0996 17.3499 13.8996 15.8499 15.3996C14.4499 16.8996 13.6499 18.7996 13.6499 20.8996V23.3996C13.6499 25.3996 14.4499 27.3996 15.8499 28.8996C17.3499 30.3996 19.3499 31.1996 21.4499 31.0996H23.2499C25.5499 31.0996 27.8499 30.0996 29.4499 28.3996C30.9499 26.7996 33.0499 25.8996 35.2499 26.0996C35.7499 26.0996 36.2499 26.0996 36.7499 26.1996C37.0499 25.4996 37.2499 24.7996 37.3499 23.9996C36.6499 23.8996 35.9499 23.7996 35.2499 23.7996C27.8499 23.7996 28.2499 28.7996 23.3499 28.7996H21.4499C18.5499 28.8996 16.0499 26.5996 15.9499 23.6996C15.9499 23.5996 15.9499 23.4996 15.9499 23.3996V20.7996C15.8499 17.8996 18.2499 15.3996 21.1499 15.2996C21.2499 15.2996 21.3499 15.2996 21.4499 15.2996H23.2499C28.1499 15.2996 27.7499 20.2996 35.1499 20.2996C35.8499 20.2996 36.5499 20.1996 37.2499 20.0996C37.2499 19.4996 37.0499 18.7996 36.7499 17.9996Z" fill="#0AE8F0"/>
</svg>
